<?xml version="1.0" encoding="UTF-8" standalone="no"?>
<svg
   xmlns:dc="http://purl.org/dc/elements/1.1/"
   xmlns:cc="http://creativecommons.org/ns#"
   xmlns:rdf="http://www.w3.org/1999/02/22-rdf-syntax-ns#"
   xmlns:svg="http://www.w3.org/2000/svg"
   xmlns="http://www.w3.org/2000/svg"
   xmlns:sodipodi="http://sodipodi.sourceforge.net/DTD/sodipodi-0.dtd"
   xmlns:inkscape="http://www.inkscape.org/namespaces/inkscape"
   fill="none"
   viewBox="0 0 35 32"
   version="1.1"
   id="svg1110"
   sodipodi:docname="logo-small.svg"
   inkscape:version="0.92.3 (2405546, 2018-03-11)">
  <metadata
     id="metadata1116">
    <rdf:RDF>
      <cc:Work
         rdf:about="">
        <dc:format>image/svg+xml</dc:format>
        <dc:type
           rdf:resource="http://purl.org/dc/dcmitype/StillImage" />
        <dc:title></dc:title>
      </cc:Work>
    </rdf:RDF>
  </metadata>
  <defs
     id="defs1114" />
  <sodipodi:namedview
     pagecolor="#ffffff"
     bordercolor="#666666"
     borderopacity="1"
     objecttolerance="10"
     gridtolerance="10"
     guidetolerance="10"
     inkscape:pageopacity="0"
     inkscape:pageshadow="2"
     inkscape:window-width="1920"
     inkscape:window-height="1061"
     id="namedview1112"
     showgrid="false"
     inkscape:zoom="17.520608"
     inkscape:cx="6.6324981"
     inkscape:cy="11.607756"
     inkscape:window-x="0"
     inkscape:window-y="0"
     inkscape:window-maximized="1"
     inkscape:current-layer="svg1110" />
  <rect
     y="13.45005"
     x="3.528933"
     height="16.572001"
     width="29.872625"
     id="rect950"
     style="opacity:1;vector-effect:none;fill:#d38d5f;fill-opacity:1;stroke:none;stroke-width:6.30756903;stroke-linecap:butt;stroke-linejoin:round;stroke-miterlimit:4;stroke-dasharray:none;stroke-dashoffset:0;stroke-opacity:1"
     inkscape:export-filename="/home/nacho/itemtree-logo.png"
     inkscape:export-xdpi="1220.4487"
     inkscape:export-ydpi="1220.4487" />
  <rect
     style="opacity:1;vector-effect:none;fill:#c8c4b7;fill-opacity:1;stroke:none;stroke-width:2.6604929;stroke-linecap:butt;stroke-linejoin:round;stroke-miterlimit:4;stroke-dasharray:none;stroke-dashoffset:0;stroke-opacity:1"
     id="rect958"
     width="30.579365"
     height="2.8801827"
     x="3.2313643"
     y="20.468718"
     inkscape:export-filename="/home/nacho/itemtree-logo.png"
     inkscape:export-xdpi="1220.4487"
     inkscape:export-ydpi="1220.4487" />
  <rect
     y="15.506093"
     x="-30.347227"
     height="2.8801827"
     width="17.315933"
     id="rect960"
     style="opacity:1;vector-effect:none;fill:#e3e2db;fill-opacity:1;stroke:none;stroke-width:2.00203109;stroke-linecap:butt;stroke-linejoin:round;stroke-miterlimit:4;stroke-dasharray:none;stroke-dashoffset:0;stroke-opacity:1"
     transform="rotate(-90)"
     inkscape:export-filename="/home/nacho/itemtree-logo.png"
     inkscape:export-xdpi="1220.4487"
     inkscape:export-ydpi="1220.4487" />
  <rect
     style="opacity:1;vector-effect:none;fill:#d38d5f;fill-opacity:1;stroke:none;stroke-width:4.32402515;stroke-linecap:butt;stroke-linejoin:round;stroke-miterlimit:4;stroke-dasharray:none;stroke-dashoffset:0;stroke-opacity:1"
     id="rect962"
     width="20.478567"
     height="11.360599"
     x="12.163467"
     y="1.3299274"
     inkscape:export-filename="/home/nacho/itemtree-logo.png"
     inkscape:export-xdpi="1220.4487"
     inkscape:export-ydpi="1220.4487" />
  <rect
     y="4.5793734"
     x="11.973972"
     height="1.9744505"
     width="20.889124"
     id="rect964"
     style="opacity:1;vector-effect:none;fill:#c8c4b7;fill-opacity:1;stroke:none;stroke-width:1.82062769;stroke-linecap:butt;stroke-linejoin:round;stroke-miterlimit:4;stroke-dasharray:none;stroke-dashoffset:0;stroke-opacity:1"
     inkscape:export-filename="/home/nacho/itemtree-logo.png"
     inkscape:export-xdpi="1220.4487"
     inkscape:export-ydpi="1220.4487" />
  <rect
     transform="rotate(-90)"
     style="opacity:1;vector-effect:none;fill:#e3e2db;fill-opacity:1;stroke:none;stroke-width:1.37035346;stroke-linecap:butt;stroke-linejoin:round;stroke-miterlimit:4;stroke-dasharray:none;stroke-dashoffset:0;stroke-opacity:1"
     id="rect966"
     width="11.834318"
     height="1.9744505"
     x="-12.9038"
     y="22.456861"
     inkscape:export-filename="/home/nacho/itemtree-logo.png"
     inkscape:export-xdpi="1220.4487"
     inkscape:export-ydpi="1220.4487" />
  <rect
     transform="rotate(-90)"
     style="opacity:1;vector-effect:none;fill:#e3e2db;fill-opacity:1;stroke:none;stroke-width:2.00203109;stroke-linecap:butt;stroke-linejoin:round;stroke-miterlimit:4;stroke-dasharray:none;stroke-dashoffset:0;stroke-opacity:1"
     id="rect975"
     width="17.315933"
     height="2.8801827"
     x="-30.347227"
     y="19.905348"
     inkscape:export-filename="/home/nacho/itemtree-logo.png"
     inkscape:export-xdpi="1220.4487"
     inkscape:export-ydpi="1220.4487" />
  <rect
     y="19.418736"
     x="-12.9038"
     height="1.9744505"
     width="11.834318"
     id="rect977"
     style="opacity:1;vector-effect:none;fill:#e3e2db;fill-opacity:1;stroke:none;stroke-width:1.37035346;stroke-linecap:butt;stroke-linejoin:round;stroke-miterlimit:4;stroke-dasharray:none;stroke-dashoffset:0;stroke-opacity:1"
     transform="rotate(-90)"
     inkscape:export-filename="/home/nacho/itemtree-logo.png"
     inkscape:export-xdpi="1220.4487"
     inkscape:export-ydpi="1220.4487" />
  <rect
     style="opacity:1;vector-effect:none;fill:#ffffff;fill-opacity:1;stroke:none;stroke-width:8.46859264;stroke-linecap:butt;stroke-linejoin:round;stroke-miterlimit:4;stroke-dasharray:none;stroke-dashoffset:0;stroke-opacity:1"
     id="rect979"
     width="4.6927323"
     height="3.2145958"
     x="5.5100036"
     y="14.975467"
     inkscape:export-filename="/home/nacho/itemtree-logo.png"
     inkscape:export-xdpi="1220.4487"
     inkscape:export-ydpi="1220.4487" />
  <rect
     y="7.9568343"
     x="26.43026"
     height="3.2145958"
     width="4.6927323"
     id="rect981"
     style="opacity:1;vector-effect:none;fill:#ffffff;fill-opacity:1;stroke:none;stroke-width:8.46859264;stroke-linecap:butt;stroke-linejoin:round;stroke-miterlimit:4;stroke-dasharray:none;stroke-dashoffset:0;stroke-opacity:1"
     inkscape:export-filename="/home/nacho/itemtree-logo.png"
     inkscape:export-xdpi="1220.4487"
     inkscape:export-ydpi="1220.4487" />
  <path
     style="fill:none;stroke:#000000;stroke-width:0;stroke-linecap:butt;stroke-linejoin:miter;stroke-miterlimit:4;stroke-dasharray:none;stroke-opacity:1"
     d="m 26.943691,8.7532467 c 0.07134,0.056982 0.03862,0.033874 0.09603,0.072055 0.01149,0.00862 0.0221,0.020092 0.03603,0.023975 0.01536,0.00433 0.03258,-0.00433 0.04794,0 0.01435,0.00433 0.02196,0.020525 0.03603,0.023975 0.01937,0.00433 0.04004,0 0.06,0 0.01148,0 0.02397,0 0.03603,0 0.02398,0 0.04794,0 0.07205,0 0.01149,0 0.02411,0.00147 0.03603,0 0.01291,-0.00147 0.02383,-0.00862 0.03603,-0.011485 0.0012,-3.589e-4 0.09574,-0.023828 0.09603,-0.023975 0.02125,-0.010046 0.03818,-0.027563 0.06,-0.036031 0.05052,-0.019373 0.168898,-0.035451 0.216007,-0.047941 0.02081,-0.00572 0.03961,-0.017223 0.06,-0.023967 0.02756,-0.00862 0.05612,-0.015506 0.08397,-0.023975 0.02425,-0.00719 0.04751,-0.017803 0.07206,-0.023975 0.07492,-0.018661 0.151702,-0.011484 0.228005,-0.011484 0.02799,0 0.05598,0 0.08397,0 0.01593,0 0.03201,0 0.04794,0 0.0086,0 0.01637,-0.00286 0.02398,0 0.0086,0.00286 0.03588,0.047794 0.03603,0.047941 0.0072,0.00862 0.0155,0.016651 0.02397,0.023975 0.01937,0.016651 0.04048,0.031291 0.06,0.047941 0.01149,0.010046 0.05253,0.054971 0.06,0.059998 0.07306,0.048661 0.05884,0.027988 0.132052,0.047941 0.0244,0.00719 0.04708,0.01952 0.07206,0.023975 0.01967,0.00286 0.04005,0 0.06,0 0.07335,0 0.07722,0.012923 0.132052,-0.023975 0.01005,-0.00572 0.01536,-0.016798 0.02397,-0.023975 0.01536,-0.012923 0.03387,-0.021817 0.04794,-0.036031 0.0057,-0.00572 0.0072,-0.016798 0.01148,-0.023975 0.02009,-0.026844 0.01507,-0.023975 0.03603,-0.023975 0.0086,0 0.01622,-0.00147 0.02397,0 0.02483,0.00433 0.04694,0.020378 0.07206,0.023975 0.01578,0.00286 0.03215,-0.00286 0.04794,0 0.01292,0.00147 0.02398,0.00862 0.03603,0.011485 0.01593,0 0.03215,-0.00147 0.04794,0 0.03272,0.00433 0.06315,0.020386 0.09603,0.023975 0.01995,0.00286 0.04004,0 0.06,0 0.04407,0 0.08799,0 0.132052,0 0.0086,0 0.01593,0 0.02398,0 0.0086,0 0.01622,-0.00147 0.02398,0 0.0086,0.00286 0.0155,0.00862 0.02397,0.011485 0.0043,0.00116 0.0086,-0.00147 0.01148,0 0.05727,0.022961 0.03244,0.023108 0.08397,0.036031 0.01981,0.00433 0.04004,0.00719 0.06,0.011484 0.01608,0.00286 0.03158,0.010046 0.04808,0.011485 0.01593,0.00147 0.03215,-0.00286 0.04794,0 0.0086,0.00147 0.01536,0.010046 0.02398,0.011485 0.0072,0.00147 0.01593,0 0.02398,0 0.02799,0 0.05598,0 0.08397,0 0.09603,0 0.192008,0 0.288004,0"
     id="path984"
     inkscape:connector-curvature="0"
     inkscape:export-filename="/home/nacho/itemtree-logo.png"
     inkscape:export-xdpi="1220.4487"
     inkscape:export-ydpi="1220.4487" />
</svg>
