<?xml version="1.0" encoding="UTF-8" standalone="no"?>
<svg
   xmlns:dc="http://purl.org/dc/elements/1.1/"
   xmlns:cc="http://creativecommons.org/ns#"
   xmlns:rdf="http://www.w3.org/1999/02/22-rdf-syntax-ns#"
   xmlns:svg="http://www.w3.org/2000/svg"
   xmlns="http://www.w3.org/2000/svg"
   xmlns:sodipodi="http://sodipodi.sourceforge.net/DTD/sodipodi-0.dtd"
   xmlns:inkscape="http://www.inkscape.org/namespaces/inkscape"
   fill="none"
   viewBox="0 0 143 32"
   version="1.1"
   id="svg2023"
   sodipodi:docname="logo-big.svg"
   inkscape:version="0.92.3 (2405546, 2018-03-11)">
  <metadata
     id="metadata2029">
    <rdf:RDF>
      <cc:Work
         rdf:about="">
        <dc:format>image/svg+xml</dc:format>
        <dc:type
           rdf:resource="http://purl.org/dc/dcmitype/StillImage" />
        <dc:title></dc:title>
      </cc:Work>
    </rdf:RDF>
  </metadata>
  <defs
     id="defs2027" />
  <sodipodi:namedview
     pagecolor="#ffffff"
     bordercolor="#666666"
     borderopacity="1"
     objecttolerance="10"
     gridtolerance="10"
     guidetolerance="10"
     inkscape:pageopacity="0"
     inkscape:pageshadow="2"
     inkscape:window-width="1920"
     inkscape:window-height="1061"
     id="namedview2025"
     showgrid="false"
     inkscape:zoom="9.993007"
     inkscape:cx="68.084687"
     inkscape:cy="-1.5766618"
     inkscape:window-x="0"
     inkscape:window-y="0"
     inkscape:window-maximized="1"
     inkscape:current-layer="svg2023" />
  <text
     xml:space="preserve"
     style="font-style:normal;font-variant:normal;font-weight:normal;font-stretch:normal;font-size:22.60443497px;line-height:1.25;font-family:'sans serif';-inkscape-font-specification:'sans serif';letter-spacing:0px;word-spacing:0px;fill:#ffffff;fill-opacity:1;stroke:none;stroke-width:0.56511086"
     x="43.574665"
     y="23.188585"
     id="text2033"><tspan
       sodipodi:role="line"
       id="tspan2031"
       x="43.574665"
       y="23.188585"
       style="font-style:normal;font-variant:normal;font-weight:500;font-stretch:normal;font-family:Ubuntu;-inkscape-font-specification:'Ubuntu Medium';fill:#ffffff;stroke-width:0.56511086">itemtree</tspan></text>
  <rect
     y="13.340886"
     x="2.1451464"
     height="15.368679"
     width="27.703522"
     id="rect950"
     style="opacity:1;vector-effect:none;fill:#d38d5f;fill-opacity:1;stroke:none;stroke-width:5.84956551;stroke-linecap:butt;stroke-linejoin:round;stroke-miterlimit:4;stroke-dasharray:none;stroke-dashoffset:0;stroke-opacity:1"
     inkscape:export-filename="/home/nacho/itemtree-logo.png"
     inkscape:export-xdpi="1220.4487"
     inkscape:export-ydpi="1220.4487" />
  <rect
     style="opacity:1;vector-effect:none;fill:#c8c4b7;fill-opacity:1;stroke:none;stroke-width:2.46730971;stroke-linecap:butt;stroke-linejoin:round;stroke-miterlimit:4;stroke-dasharray:none;stroke-dashoffset:0;stroke-opacity:1"
     id="rect958"
     width="28.358944"
     height="2.6710479"
     x="1.8691841"
     y="19.849916"
     inkscape:export-filename="/home/nacho/itemtree-logo.png"
     inkscape:export-xdpi="1220.4487"
     inkscape:export-ydpi="1220.4487" />
  <rect
     y="13.252624"
     x="-29.011129"
     height="2.6710479"
     width="16.058594"
     id="rect960"
     style="opacity:1;vector-effect:none;fill:#e3e2db;fill-opacity:1;stroke:none;stroke-width:1.85666001;stroke-linecap:butt;stroke-linejoin:round;stroke-miterlimit:4;stroke-dasharray:none;stroke-dashoffset:0;stroke-opacity:1"
     transform="rotate(-90)"
     inkscape:export-filename="/home/nacho/itemtree-logo.png"
     inkscape:export-xdpi="1220.4487"
     inkscape:export-ydpi="1220.4487" />
  <rect
     style="opacity:1;vector-effect:none;fill:#d38d5f;fill-opacity:1;stroke:none;stroke-width:4.01004982;stroke-linecap:butt;stroke-linejoin:round;stroke-miterlimit:4;stroke-dasharray:none;stroke-dashoffset:0;stroke-opacity:1"
     id="rect962"
     width="18.991585"
     height="10.535685"
     x="10.15271"
     y="2.1008294"
     inkscape:export-filename="/home/nacho/itemtree-logo.png"
     inkscape:export-xdpi="1220.4487"
     inkscape:export-ydpi="1220.4487" />
  <rect
     y="5.1143255"
     x="9.9769754"
     height="1.8310822"
     width="19.372328"
     id="rect964"
     style="opacity:1;vector-effect:none;fill:#c8c4b7;fill-opacity:1;stroke:none;stroke-width:1.68842876;stroke-linecap:butt;stroke-linejoin:round;stroke-miterlimit:4;stroke-dasharray:none;stroke-dashoffset:0;stroke-opacity:1"
     inkscape:export-filename="/home/nacho/itemtree-logo.png"
     inkscape:export-xdpi="1220.4487"
     inkscape:export-ydpi="1220.4487" />
  <rect
     transform="rotate(-90)"
     style="opacity:1;vector-effect:none;fill:#e3e2db;fill-opacity:1;stroke:none;stroke-width:1.2708497;stroke-linecap:butt;stroke-linejoin:round;stroke-miterlimit:4;stroke-dasharray:none;stroke-dashoffset:0;stroke-opacity:1"
     id="rect966"
     width="10.975007"
     height="1.8310822"
     x="-12.834297"
     y="19.698685"
     inkscape:export-filename="/home/nacho/itemtree-logo.png"
     inkscape:export-xdpi="1220.4487"
     inkscape:export-ydpi="1220.4487" />
  <rect
     transform="rotate(-90)"
     style="opacity:1;vector-effect:none;fill:#e3e2db;fill-opacity:1;stroke:none;stroke-width:1.85666001;stroke-linecap:butt;stroke-linejoin:round;stroke-miterlimit:4;stroke-dasharray:none;stroke-dashoffset:0;stroke-opacity:1"
     id="rect975"
     width="16.058594"
     height="2.6710479"
     x="-29.011129"
     y="17.332443"
     inkscape:export-filename="/home/nacho/itemtree-logo.png"
     inkscape:export-xdpi="1220.4487"
     inkscape:export-ydpi="1220.4487" />
  <rect
     y="16.881163"
     x="-12.834297"
     height="1.8310822"
     width="10.975007"
     id="rect977"
     style="opacity:1;vector-effect:none;fill:#e3e2db;fill-opacity:1;stroke:none;stroke-width:1.2708497;stroke-linecap:butt;stroke-linejoin:round;stroke-miterlimit:4;stroke-dasharray:none;stroke-dashoffset:0;stroke-opacity:1"
     transform="rotate(-90)"
     inkscape:export-filename="/home/nacho/itemtree-logo.png"
     inkscape:export-xdpi="1220.4487"
     inkscape:export-ydpi="1220.4487" />
  <rect
     style="opacity:1;vector-effect:none;fill:#ffffff;fill-opacity:1;stroke:none;stroke-width:7.85367298;stroke-linecap:butt;stroke-linejoin:round;stroke-miterlimit:4;stroke-dasharray:none;stroke-dashoffset:0;stroke-opacity:1"
     id="rect979"
     width="4.351985"
     height="2.981178"
     x="3.982367"
     y="14.75554"
     inkscape:export-filename="/home/nacho/itemtree-logo.png"
     inkscape:export-xdpi="1220.4487"
     inkscape:export-ydpi="1220.4487" />
  <rect
     y="8.2465448"
     x="23.38357"
     height="2.981178"
     width="4.351985"
     id="rect981"
     style="opacity:1;vector-effect:none;fill:#ffffff;fill-opacity:1;stroke:none;stroke-width:7.85367298;stroke-linecap:butt;stroke-linejoin:round;stroke-miterlimit:4;stroke-dasharray:none;stroke-dashoffset:0;stroke-opacity:1"
     inkscape:export-filename="/home/nacho/itemtree-logo.png"
     inkscape:export-xdpi="1220.4487"
     inkscape:export-ydpi="1220.4487" />
  <path
     style="fill:none;stroke:#000000;stroke-width:0;stroke-linecap:butt;stroke-linejoin:miter;stroke-miterlimit:4;stroke-dasharray:none;stroke-opacity:1"
     d="m 23.859717,8.9851257 c 0.06616,0.052853 0.03581,0.031422 0.08906,0.066825 0.01064,0.00801 0.0205,0.018634 0.03341,0.022231 0.01425,0.00395 0.03022,-0.00395 0.04446,0 0.01332,0.00395 0.02037,0.01904 0.03342,0.022231 0.01797,0.00395 0.03714,0 0.05564,0 0.01064,0 0.02223,0 0.03341,0 0.02223,0 0.04446,0 0.06683,0 0.01064,0 0.02236,0.00132 0.03341,0 0.01199,-0.00132 0.0221,-0.00801 0.03342,-0.010639 0.0011,-3.334e-4 0.08878,-0.022099 0.08906,-0.022231 0.01971,-0.00932 0.0354,-0.025565 0.05564,-0.033407 0.04685,-0.017965 0.156635,-0.032881 0.200322,-0.044462 0.0193,-0.00537 0.03674,-0.01598 0.05564,-0.022231 0.02557,-0.00801 0.05205,-0.014379 0.07787,-0.022231 0.02249,-0.00669 0.04406,-0.016506 0.06683,-0.022231 0.06948,-0.017307 0.140687,-0.010639 0.21145,-0.010639 0.02596,0 0.05192,0 0.07787,0 0.01477,0 0.02968,0 0.04446,0 0.008,0 0.01518,-0.00263 0.02223,0 0.008,0.00263 0.03327,0.04432 0.03341,0.044462 0.0067,0.00801 0.01438,0.015442 0.02223,0.022231 0.01797,0.015442 0.03753,0.02902 0.05564,0.044462 0.01064,0.00932 0.04872,0.050988 0.05564,0.055638 0.06776,0.045131 0.05457,0.02596 0.122464,0.044462 0.02263,0.00669 0.04366,0.018107 0.06682,0.022231 0.01824,0.00263 0.03714,0 0.05564,0 0.06802,0 0.07162,0.011977 0.122463,-0.022231 0.0093,-0.00537 0.01425,-0.015574 0.02223,-0.022231 0.01425,-0.011977 0.03142,-0.020235 0.04446,-0.033407 0.0054,-0.00537 0.0067,-0.015574 0.01064,-0.022231 0.01863,-0.024896 0.01397,-0.022231 0.03342,-0.022231 0.008,0 0.01504,-0.00132 0.02223,0 0.02303,0.00395 0.04353,0.018897 0.06683,0.022231 0.01464,0.00263 0.02982,-0.00263 0.04446,0 0.01198,0.00132 0.02223,0.00801 0.03342,0.010639 0.01477,0 0.02982,-0.00132 0.04446,0 0.03035,0.00395 0.05857,0.018897 0.08906,0.022231 0.0185,0.00263 0.03714,0 0.05564,0 0.04087,0 0.0816,0 0.122464,0 0.008,0 0.01477,0 0.02223,0 0.008,0 0.01504,-0.00132 0.02223,0 0.008,0.00263 0.01438,0.00801 0.02223,0.010639 0.0039,0.00106 0.008,-0.00132 0.01064,0 0.05311,0.021299 0.03008,0.021431 0.07787,0.033407 0.01837,0.00395 0.03714,0.00669 0.05564,0.010639 0.01491,0.00263 0.02928,0.00932 0.04459,0.010638 0.01477,0.00132 0.02982,-0.00263 0.04446,0 0.008,0.00132 0.01425,0.00932 0.02223,0.010639 0.0067,0.00132 0.01477,0 0.02223,0 0.02596,0 0.05192,0 0.07787,0 0.08906,0 0.178065,0 0.267091,0"
     id="path984"
     inkscape:connector-curvature="0"
     inkscape:export-filename="/home/nacho/itemtree-logo.png"
     inkscape:export-xdpi="1220.4487"
     inkscape:export-ydpi="1220.4487" />
</svg>
